
<!-- Generator: Adobe Illustrator 25.0.1, SVG Export Plug-In . SVG Version: 6.00 Build 0)  -->
<svg  xmlns="http://www.w3.org/2000/svg" xmlns:xlink="http://www.w3.org/1999/xlink" x="0px" y="0px"
	 viewBox="0 0 80.7 25.62" style="enable-background:new 0 0 80.7 25.62;" xml:space="preserve">
<g>
	<path d="M0,10.77c7.26-0.03,12.03-2.19,12.03-6.84V3.15H0V0.63h15.03v2.79c0,7.02-6.09,9.93-15.03,9.93V10.77z M1.26,15.33h21.72
		v9.96H1.26V15.33z M20.01,22.77v-4.92H4.23v4.92H20.01z M20.01,0h2.97v13.92h-2.97V0z"/>
	<path d="M28.86,0.93h13.95v6.18c0,10.2-5.25,16.92-13.95,16.92v-2.82c6.96-0.03,10.92-5.46,10.92-14.04V3.66H28.86V0.93z
		 M54.72,13.23h-3.6v12.39h-2.97V0h2.97v10.38h3.6V13.23z"/>
	<path d="M57.96,6.15h12.21V3.06H57.9V0.63h15.21v7.89H60.9v3.15h6.75c3.48,0,6.42-0.42,8.07-1.17v2.46
		c-1.56,0.69-4.56,1.14-8.19,1.14h-9.57V6.15z M58.98,16.41H80.7v8.88H58.98V16.41z M77.76,22.86v-4.02H61.92v4.02H77.76z M77.73,0
		h2.97v15h-2.97V0z"/>
</g>
</svg>
