<!-- Generator: Adobe Illustrator 25.0.1, SVG Export Plug-In . SVG Version: 6.00 Build 0)  -->
<svg xmlns="http://www.w3.org/2000/svg" xmlns:xlink="http://www.w3.org/1999/xlink" x="0px" y="0px"
	 viewBox="0 0 82.23 43.33" style="enable-background:new 0 0 82.23 43.33;" xml:space="preserve">
<g>
	<g>
		<path d="M18.48,9.57c0-0.22-0.41-0.43-0.93-0.57c-0.18-0.04-0.31-0.12-0.31-0.19c0-0.1,0.39-0.17,0.6-0.17
			c0.33,0,0.75,0.07,0.99,0.1c0.48,0.08,0.57,0.17,0.57,0.31c0,0.09-0.03,0.19-0.03,0.33v0.92l4.38-0.06V9.07
			c0-0.18-0.27-0.41-0.77-0.54c-0.18-0.06-0.31-0.14-0.31-0.21c0-0.12,0.45-0.14,0.54-0.14c0.27,0,0.52,0.05,0.72,0.09
			c-0.09-0.12-0.15-0.42-0.15-0.96V4.36c-0.78,0.03-1.26,0.1-1.63,0.12c-0.39,0.03-0.48,0.18-0.73,0.18c-0.17,0-0.41-0.06-0.84-0.25
			c0,0-0.02-0.01-0.03-0.01c0,2.01-1.74,2.67-3.18,2.67c-1.98,0-3.06-1.27-3.06-2.59c0-1.14,0.79-2.28,2.48-2.55l0.1-0.03
			c0.27-0.01,0.4-0.15,0.4-0.33c0-0.06-0.02-0.15-0.06-0.23c-0.1-0.09-0.18-0.18-0.18-0.25c0-0.05,0.04-0.09,0.18-0.09
			c0.41,0,0.9,0.29,0.9,0.5c0,0.17-0.19,0.3-0.25,0.44c1.5,0.17,2.4,1.02,2.6,2.08c0.04,0.03,0.58,0.03,0.7,0.03
			c0.77,0,1.89-0.04,2.61-0.12v-2.5c-0.04-0.33-0.76-0.7-1.32-0.93c-0.21-0.08-0.38-0.18-0.38-0.25c0-0.08,0.15-0.15,0.51-0.18
			c0.18,0,2.16,0.35,2.16,0.75c0,0.09-0.04,0.19-0.04,0.38l-0.02,4.86c0,1.96-0.52,2.26-0.6,2.28c0.02,0.02,0.05,0.03,0.08,0.03
			c0.4,0.09,0.5,0.16,0.5,0.28c0,0.09-0.04,0.2-0.04,0.36v2.88c0,0.47-0.03,1.11-0.18,1.59c-0.09,0.27-0.23,0.43-0.35,0.43
			c-0.15,0-0.28-0.24-0.33-0.87l-4.42,0.06c-0.17,0.61-0.44,1.05-0.63,1.05c-0.13,0-0.22-0.18-0.22-0.65V9.57z M15.21,4.48
			c0,1,0.71,1.99,2.13,1.99c1.57,0,2.35-0.99,2.35-1.99c0-0.99-0.78-2-2.35-2C15.91,2.49,15.21,3.49,15.21,4.48z M19.36,10.72v1.92
			l4.38-0.04v-1.92L19.36,10.72z"/>
		<path d="M38.74,6.36c-0.77,0.04-1.44,0.09-1.83,0.12c-0.33,0.05-0.38,0.2-0.58,0.2c-0.13,0-0.34-0.06-0.76-0.27
			c-0.17,1.44-1.22,2.53-3.18,2.53c-2.22,0-3.46-1.38-3.46-2.88c0-1.27,0.93-2.53,2.85-2.8c0.27-0.06,0.54-0.14,0.54-0.41
			c0-0.09-0.05-0.19-0.1-0.28c-0.09-0.09-0.15-0.18-0.15-0.24c0-0.04,0.04-0.09,0.15-0.09c0.42,0,0.94,0.42,0.94,0.57
			c0,0.12-0.18,0.23-0.3,0.42c1.83,0.41,2.64,1.41,2.73,2.73h-0.01C35.76,5.98,36.06,6,36.4,6c0.75,0,1.72-0.06,2.34-0.12v-4.4
			c-0.03-0.31-0.75-0.77-1.31-1.04c-0.22-0.07-0.39-0.18-0.39-0.27c0-0.09,0.15-0.17,0.54-0.18c0.73,0.15,1.5,0.39,1.8,0.5
			c0.28,0.13,0.34,0.21,0.34,0.31c0,0.07-0.04,0.18-0.04,0.36v8.7c-0.03,2.76-0.1,3.52-0.4,4.06c-0.09,0.17-0.2,0.27-0.27,0.27
			c-0.15,0-0.27-0.3-0.27-1.05V6.36z M29.86,6.1c0,1.12,0.83,2.25,2.5,2.25c1.56,0,2.35-1.12,2.35-2.25c0-1.12-0.79-2.25-2.35-2.25
			C30.69,3.85,29.86,4.98,29.86,6.1z"/>
		<path d="M46.38,3.51c-0.46,0.08-0.52,0.24-0.75,0.24c-0.27,0-1.63-0.56-1.63-0.84c0-0.04,0.04-0.07,0.15-0.07
			c0.07,0,0.21,0.03,0.38,0.06c0.58,0.09,1.14,0.12,1.74,0.12c0.81,0,1.69-0.06,2.82-0.12c0.5-0.05,0.39-0.17,0.83-0.17
			c0.24,0,0.92,0.04,0.92,0.27c0,0.13-0.2,0.3-0.31,0.48c-1.41,3.3-3.21,5.38-6.55,7.69c-0.24,0.17-0.39,0.24-0.47,0.24
			c-0.04,0-0.06-0.02-0.06-0.04c0-0.06,0.12-0.21,0.38-0.42c2.13-1.68,4.89-4.98,5.59-7.65C48.96,3.33,46.86,3.45,46.38,3.51z
			 M53.11,1.33c-0.02-0.25-0.83-0.62-1.46-0.9c-0.17-0.06-0.27-0.14-0.27-0.2c0-0.09,0.18-0.17,0.63-0.18
			c0.65,0.1,1.25,0.25,1.73,0.4c0.31,0.12,0.39,0.23,0.39,0.38c0,0.12-0.05,0.25-0.05,0.48v5.46h0.75c0.71-0.1,0.47-0.39,1.43-0.39
			c0.28,0,0.92,0,0.92,0.46c0,0.21-0.18,0.39-0.51,0.39h-2.59l-0.02,4.35c-0.02,0.98-0.12,1.59-0.38,2.22
			c-0.12,0.18-0.24,0.27-0.34,0.27c-0.14,0-0.23-0.2-0.23-0.69V1.33z"/>
		<path d="M61.65,3.04c-0.54,0.09-0.66,0.25-0.92,0.25c-0.38,0-1.56-0.61-1.56-0.81c0-0.06,0.08-0.09,0.2-0.09
			c0.09,0,0.21,0.02,0.34,0.04c0.77,0.12,1.68,0.15,2.7,0.15c0.6,0,1.24-0.01,1.9-0.01c0.42-0.05,0.36-0.15,0.79-0.15
			c0.08,0,0.17,0.02,0.29,0.02c0.49,0.03,0.65,0.12,0.65,0.24c0,0.13-0.21,0.3-0.32,0.43c-1.33,3.45-3.24,5.67-6.61,7.95
			c-0.27,0.17-0.45,0.23-0.54,0.23c-0.03,0-0.06-0.02-0.06-0.04c0-0.06,0.12-0.19,0.38-0.38c2.58-1.98,5.07-5.07,5.85-7.93
			L61.65,3.04z M68.79,1.52c-0.03-0.29-0.48-0.65-1.33-1.02c-0.21-0.08-0.33-0.17-0.33-0.24c0-0.09,0.15-0.17,0.5-0.19
			c0.94,0.15,1.47,0.36,1.83,0.48c0.22,0.09,0.27,0.19,0.27,0.33c0,0.12-0.05,0.24-0.05,0.4l-0.01,8.83c0,2.76-0.09,3.14-0.36,3.71
			c-0.11,0.18-0.21,0.27-0.3,0.27c-0.12,0-0.21-0.18-0.21-0.65V1.52z"/>
	</g>
	<g>
		<path d="M0,30.22c0-8.13,3.21-11.91,7.77-11.91c4.53,0,7.74,3.78,7.74,11.91c0,8.13-3.21,11.91-7.74,11.91
			C3.21,42.13,0,38.35,0,30.22z M12.54,30.22c0-6.48-2.1-9.18-4.77-9.18c-2.73,0-4.8,2.7-4.8,9.18c0,6.51,2.07,9.18,4.8,9.18
			C10.44,39.4,12.54,36.73,12.54,30.22z M19.86,17.71h3v25.62h-3V17.71z"/>
		<path d="M39.66,32.98h-11.1V18.16h2.76v4.83h5.61v-4.83h2.73v5.85h3.75v-6.15h2.79v18.63h-2.79v-9.72h-3.75V32.98z M53.04,40.3V43
			H30.18v-7.68h3.03v4.98H53.04z M36.93,30.55v-5.16h-5.61v5.16H36.93z M52.41,36.94h-2.82V17.71h2.82V36.94z"/>
		<path d="M82.23,39.37v2.73H56.64v-2.73H82.23z M80.94,35.02H58.35V18.64h22.2v2.67H61.32v4.2h18.9v2.61h-18.9v4.23h19.62V35.02z"
			/>
	</g>
</g>
</svg>
